<?xml version="1.0" encoding="UTF-8"?>
<!DOCTYPE svg PUBLIC "-//W3C//DTD SVG 1.1//EN" "http://www.w3.org/Graphics/SVG/1.1/DTD/svg11.dtd">
<!-- Creator: CorelDRAW -->
<svg xmlns="http://www.w3.org/2000/svg" xml:space="preserve" width="47.5848mm" height="14.644mm" version="1.1" style="shape-rendering:geometricPrecision; text-rendering:geometricPrecision; image-rendering:optimizeQuality; fill-rule:evenodd; clip-rule:evenodd"
viewBox="0 0 481.28 148.11"
 xmlns:xlink="http://www.w3.org/1999/xlink"
 xmlns:xodm="http://www.corel.com/coreldraw/odm/2003">
 <defs>
  <style type="text/css">
   <![CDATA[
    .fil1 {fill:#ED2736}
    .fil2 {fill:white}
    .fil0 {fill:white;fill-rule:nonzero}
   ]]>
  </style>
 </defs>
 <g id="Capa_x0020_1">
  <metadata id="CorelCorpID_0Corel-Layer"/>
  <path class="fil0" d="M361.03 0.21l36.65 60.64 0.06 48.23 21.05 0 17.5 0 0 -22.91 0.21 -23.55 2.81 -4.34 23.81 -36.97 12.55 -19.29 1.13 -1.76 -19.95 0 -19.92 0 -6.82 11.97 -6.53 12.51 -8.1 -12.85 -7.39 -11.89 -23.55 0 -23.52 0.21zm-90.53 72.42l-2.63 8.75 0.15 -0 -8.04 26.46 34.2 0.13 0.56 -1.86 7.78 -24.83 0.55 -0 14.16 -0c0.16,0.24 8.53,27.6 8.53,27.83 0,0.02 1,0.03 2.77,0.05l41.04 0c1.76,-0.02 2.77,-0.03 2.77,-0.05 0,-0.05 -8.16,-24.52 -18.16,-54.36l-18.23 -54.5 -43.55 0.21c-0.08,0.18 -4.9,16.58 -10.82,36.27l-10.91 35.92 -0.18 0zm147.64 -39.21c-0.05,0.08 -2.77,4.66 -5.93,10.21l-5.74 10.05 -27.52 -44.16c-0.16,-0.26 0.59,-0.32 11.45,-0.26l12.81 0.08 14.93 24.08zm-416.29 21.31l0 54.39 20 0c12.58,0 20.97,-0.02 22.58,-0.21 9.08,-1 17.76,-4.47 24.92,-9.95 2.24,-1.68 6.74,-6.1 8.63,-8.45 6.18,-7.66 10.29,-17.39 11.63,-27.47 0.5,-3.87 0.5,-11.71 0.03,-15.42 -2.84,-21 -16.81,-38.34 -36.08,-44.71 -7.39,-2.45 -9.95,-2.66 -33.08,-2.66l-18.63 0 0 54.47zm43.73 -44.76c17.26,3.45 30.97,17.47 34.68,35.47 3.16,15.39 -1.39,31.66 -11.92,42.39 -7.6,7.76 -17,11.97 -27.6,12.34l-3.89 0.13 0 -45.58 0 -45.6 3.11 0.16c1.68,0.11 4.21,0.42 5.63,0.68zm62.05 44.76l0 54.47 21.71 0 21.71 0 0.05 -54.07c0,-29.74 0.03,-54.23 0.05,-54.42 0.03,-0.24 -4.53,-0.34 -21.73,-0.4l-21.79 -0.05 0 54.47zm68.6 -54.29c-0.11,0.08 -0.18,24.6 -0.18,54.47l0 17.24 0 8.89 0 28.16 17.5 0 17.5 0 0 -14.08 0 -14.08 4.82 0c10.18,0 15.26,-1 22,-4.37 4.39,-2.21 7.55,-4.53 11.03,-8.13 5.55,-5.71 9.08,-12.39 10.63,-20.18 0.76,-3.84 0.84,-11.1 0.13,-14.87 -2.13,-11.5 -9.37,-21.84 -19.47,-27.76 -4.6,-2.68 -10.84,-4.71 -16.18,-5.21 -3.11,-0.29 -47.47,-0.37 -47.76,-0.08l0 -0zm51.15 9.61c11.6,3.1 19.92,11.42 23.08,23.08 0.61,2.29 0.68,2.97 0.68,7.53 0,4.58 -0.08,5.21 -0.71,7.55 -1.5,5.61 -4,10.03 -7.95,14.13 -4.42,4.6 -8.89,7.18 -15.37,8.89 -2.32,0.63 -3.11,0.68 -9.29,0.82l-6.79 0.11 0 -31.5 0 -31.5 6.92 0.11c6.37,0.11 7.08,0.18 9.42,0.79l0 0zm115.91 40.21c9.08,27.13 16.55,49.5 16.6,49.65 0.11,0.26 -2.74,0.34 -13.71,0.34 -7.6,0 -13.84,-0.05 -13.84,-0.11 0,-0.05 -1.9,-6.21 -4.21,-13.71 -2.32,-7.47 -4.21,-13.63 -4.21,-13.71 0,-0.05 -4.21,-0.11 -9.37,-0.11l-8.8 0 -1.64 0c4.06,-18.97 15.58,-53.14 22.33,-71.55 0.05,-0.21 13.59,39.46 16.84,49.18l0 0z"/>
  <path class="fil0" d="M467.1 88.81c-5.63,1.61 -9.1,6.95 -8.21,12.68 0.95,6.18 6.74,10.34 12.95,9.32 6.74,-1.11 10.76,-7.42 9.05,-14.1 -0.84,-3.29 -3.53,-6.29 -6.66,-7.47 -1.97,-0.76 -5.21,-0.95 -7.13,-0.42zm5.84 1.97c4.24,1.32 7.13,6.13 6.26,10.47 -1,5.03 -5.16,8.32 -9.95,7.87 -4.68,-0.45 -8.13,-4 -8.45,-8.71 -0.45,-6.89 5.55,-11.66 12.13,-9.63l0 0z"/>
  <path class="fil0" d="M465.49 99.6l0 6.45 1.45 0 1.45 0 0 -2.24 0 -2.24 0.87 0c0.82,0 1,0.18 2.42,2.24 0.84,1.24 1.68,2.24 1.9,2.24 0.39,0 2.79,-0.55 2.92,-0.68 0.05,-0.03 -0.74,-1.16 -1.74,-2.5l-1.84 -2.42 1 -0.95c1.87,-1.79 1.68,-4.58 -0.39,-5.74 -0.95,-0.53 -1.42,-0.6 -4.53,-0.6l-3.5 0 0 6.45 0 0zm5.92 -3.55c0.21,0.18 0.39,0.71 0.39,1.21 0,1.1 -0.79,1.68 -2.29,1.68l-1.13 0 0 -1.53c0,-0.84 0.08,-1.63 0.21,-1.74 0.26,-0.29 2.34,-0.03 2.82,0.37l0 0z"/>
  <path class="fil0" d="M91.65 129.38l-2.71 0.11 0 9.21 0 9.24 4.84 -0.11 4.84 -0.08 1.16 -0.79c1.97,-1.39 2.82,-3.95 1.95,-6 -0.4,-1 -1.74,-2.21 -2.68,-2.45 -0.61,-0.16 -0.9,-0.63 -0.39,-0.63 0.13,0 0.6,-0.37 1.05,-0.84 1.53,-1.58 1.55,-4.55 0.03,-6.13 -1.37,-1.42 -2.92,-1.71 -8.08,-1.53l0 0zm4.5 3.53c0.55,0.42 0.68,0.76 0.68,1.69 0,1.68 -0.6,2.29 -2.45,2.45l-1.5 0.11 0 -2.39 0 -2.4 1.29 0c0.89,0 1.47,0.16 1.97,0.55l0 0zm0 7.45c1.79,0.76 2.24,2.34 0.97,3.61 -0.71,0.68 -0.95,0.76 -2.5,0.76l-1.74 0 0 -2.37 0 -2.37 1.18 0c0.66,0 1.61,0.16 2.08,0.37l0 0z"/>
  <path class="fil0" d="M166.46 129.57c-2.39,0.9 -3.58,2.53 -3.58,4.97 0,2.55 0.89,3.63 4.45,5.45 2.45,1.24 3.18,1.89 3.18,2.87 0,2.03 -2.97,2.34 -6.87,0.71 -0.32,-0.13 -0.47,0.18 -0.82,1.58l-0.42 1.74 0.92 0.37c3.89,1.63 8.95,0.82 10.71,-1.71 1.03,-1.47 1.21,-3.55 0.45,-5.11 -0.71,-1.45 -1.5,-2.08 -4.71,-3.74 -2.76,-1.42 -3.29,-2.05 -2.58,-3.13 0.58,-0.9 1.92,-1.11 4.31,-0.71 1.08,0.18 1.97,0.29 2,0.24 0.29,-0.37 0.63,-3.26 0.42,-3.47 -0.45,-0.45 -6.29,-0.47 -7.47,-0.05l0 0z"/>
  <path class="fil0" d="M204.98 138.52l0 9.37 1.97 0 1.97 0 0 -3.24 0 -3.26 2.92 -0.16c5.45,-0.32 7.34,-1.89 7.34,-6.05 0,-2.74 -0.68,-3.97 -2.76,-5.05 -1.53,-0.79 -1.61,-0.79 -6.5,-0.9l-4.95 -0.08 0 9.37 0 0zm8.81 -5.53c1.05,0.45 1.45,1.11 1.45,2.4 0,1.92 -2.13,3.03 -5.26,2.71l-0.92 -0.08 -0.08 -2.71 -0.08 -2.68 2 0c1.13,0 2.37,0.16 2.89,0.37l-0 -0z"/>
  <path class="fil0" d="M228.98 138.36c-1.76,5.03 -3.21,9.24 -3.21,9.34 0,0.11 0.84,0.18 1.89,0.13l1.9 -0.08 0.66 -2.05 0.66 -2.05 3.13 0.08 3.16 0.08 0.68 1.97 0.68 1.97 2.05 0.08c1.1,0.05 2.03,-0.03 2.03,-0.13 0,-0.11 -1.42,-4.32 -3.18,-9.37l-3.21 -9.13 -2 0 -2 0 -3.24 9.16 0 0zm6.24 -0.74c0.45,1.37 0.82,2.66 0.82,2.84 0,0.21 -0.58,0.32 -1.97,0.32 -1.08,0 -1.97,-0.08 -1.97,-0.18 0,-0.63 1.95,-5.87 2.11,-5.68 0.11,0.11 0.58,1.34 1.03,2.71z"/>
  <path class="fil0" d="M252.35 138.52l0 9.37 1.97 0 1.97 0 0 -3.55 0 -3.55 1.16 0 1.16 0 1.95 3.47 1.92 3.5 2.18 0.08c1.18,0.05 2.16,0.03 2.16,-0.05 0,-0.08 -0.9,-1.76 -2,-3.74 -1.53,-2.76 -1.92,-3.66 -1.63,-3.82 0.18,-0.13 0.42,-0.24 0.53,-0.24 0.55,0 2.34,-2 2.58,-2.84 0.63,-2.32 0.18,-4.79 -1.1,-6.03 -1.61,-1.55 -2.45,-1.74 -7.89,-1.87l-4.95 -0.11 0 9.37 0 0zm8.95 -5.55c0.97,0.47 1.45,1.63 1.16,2.79 -0.34,1.34 -1.5,1.87 -4.11,1.87l-2.05 0 0 -2.5 0 -2.5 2.18 0c1.21,0 2.45,0.16 2.82,0.34l0 0z"/>
  <path class="fil0" d="M281.85 129.78c-0.47,1.29 -6.34,17.92 -6.34,18.03 0,0.05 0.87,0.08 1.92,0.03l1.9 -0.08 0.68 -1.97 0.68 -1.97 3.16 -0.08 3.13 -0.08 0.63 2.03c0.34,1.11 0.76,2.05 0.95,2.13 0.16,0.05 1.13,0.08 2.13,0.03l1.87 -0.08 -2.87 -8.16c-1.58,-4.5 -3.05,-8.66 -3.29,-9.29l-0.42 -1.11 -1.95 0c-1.79,0 -1.97,0.05 -2.18,0.58l0 -0zm3.21 8.03c0.53,1.45 0.87,2.74 0.79,2.81 -0.11,0.08 -1.05,0.16 -2.13,0.16 -1.45,0 -1.92,-0.08 -1.82,-0.34 0.05,-0.16 0.5,-1.53 1,-3 0.47,-1.5 0.95,-2.6 1.05,-2.5 0.11,0.11 0.6,1.39 1.1,2.87z"/>
  <path class="fil0" d="M321.63 129.57c-2.82,0.92 -4.92,2.82 -5.92,5.39 -0.42,1.13 -0.55,2.08 -0.58,3.97 -0.03,2.21 0.05,2.66 0.68,3.97 0.97,1.95 2.34,3.29 4.42,4.29 1.58,0.74 1.92,0.82 4.37,0.82 2.6,0 2.74,-0.03 4.74,-1.05 3.5,-1.79 4.97,-4.34 4.95,-8.71 0,-2.16 -0.08,-2.55 -0.84,-4.13 -0.97,-1.97 -2.18,-3.13 -4.26,-4.1 -1.16,-0.53 -1.92,-0.68 -3.95,-0.74 -1.61,-0.05 -2.89,0.05 -3.6,0.29l0 0zm5.79 3.82c1.26,0.79 2.08,2.39 2.24,4.47 0.29,4.1 -1.66,6.68 -5.05,6.68 -3.08,0 -4.89,-2.16 -4.89,-5.87 0,-0.79 0.13,-1.89 0.29,-2.45 0.34,-1.26 1.82,-2.92 2.92,-3.29 1.21,-0.42 3.47,-0.19 4.5,0.45l0 0z"/>
  <path class="fil0" d="M394.26 129.7c-4,1.47 -6.13,4.66 -6.13,9.1 0,2.45 0.55,4.26 1.82,5.84 2.47,3.13 7.97,4.34 12.71,2.79 1.55,-0.53 1.53,-0.45 0.97,-3.16l-0.26 -1.34 -1.24 0.55c-1,0.47 -1.74,0.58 -3.76,0.58 -2.24,0 -2.61,-0.08 -3.47,-0.66 -1.5,-1.03 -2.13,-2.42 -2.13,-4.6 0.03,-5.03 3.63,-7.1 8.87,-5.13 0.74,0.29 1.37,0.5 1.37,0.45 0.11,-0.13 1.18,-3.45 1.18,-3.63 0,-0.5 -2.68,-1.11 -5.53,-1.18 -2.53,-0.11 -3.26,-0.03 -4.39,0.39z"/>
  <path class="fil0" d="M1.47 130.83c-0.11,0.76 -0.39,4.42 -0.68,8.1 -0.29,3.68 -0.58,7.21 -0.66,7.82l-0.13 1.13 1.84 0c1.74,0 1.84,-0.03 1.84,-0.6 0,-0.32 0.19,-2.71 0.4,-5.32 0.21,-2.6 0.39,-5.03 0.42,-5.39 0.03,-0.53 0.08,-0.5 0.26,0.26 0.11,0.5 1.08,3.16 2.16,5.92l1.95 5 1.97 0.08 1.97 0.08 2.29 -5.29c1.24,-2.92 2.26,-5.5 2.26,-5.71 0,-0.24 0.08,-0.34 0.18,-0.26 0.16,0.16 0.84,8.31 0.87,10.37l0 0.87 1.92 0c1.08,0 2,-0.05 2.05,-0.11 0.08,-0.11 -1.18,-17.55 -1.32,-18.26 -0.03,-0.03 -1,-0.05 -2.21,-0.05l-2.18 0 -2.68 6.5c-1.47,3.61 -2.68,6.71 -2.71,6.92 0,0.21 -0.37,-0.61 -0.84,-1.84 -0.47,-1.24 -1.68,-4.34 -2.68,-6.92l-1.84 -4.66 -2.16 0 -2.16 0 -0.13 1.37 0 0z"/>
  <path class="fil0" d="M35.26 135.78c0,8.82 0.34,9.97 3.29,11.45 1.45,0.71 1.82,0.79 4.21,0.79 3.08,0 4.26,-0.34 5.74,-1.68 1.92,-1.74 2.03,-2.13 2.03,-9.97l0 -6.89 -1.84 0 -1.84 0 0 6.24c0,4.45 -0.11,6.45 -0.34,6.89 -0.79,1.55 -3.03,2.24 -5.05,1.55 -1.84,-0.61 -1.97,-1.16 -1.97,-8.45l0 -6.24 -2.11 0 -2.1 0 0 6.32 0 0z"/>
  <path class="fil0" d="M64.21 138.67l0 9.21 5.92 0 5.92 0 0 -1.03c0,-0.55 0.08,-1.39 0.16,-1.84l0.18 -0.82 -4.13 0 -4.13 0 0.08 -1.92 0.08 -1.89 3.24 -0.08 3.21 -0.08 0 -1.68 0 -1.71 -3.29 0 -3.29 0 0 -1.84 0 -1.84 3.53 0 3.5 0 0.19 -1c0.08,-0.53 0.16,-1.37 0.16,-1.84l0 -0.84 -5.66 0 -5.66 0 0 9.21 0 0z"/>
  <path class="fil0" d="M114.73 138.67l0 9.21 5.92 0 5.92 0 0 -1.26c0,-0.68 0.08,-1.5 0.16,-1.84l0.16 -0.58 -3.97 0 -3.97 0 0 -7.37 0 -7.37 -2.11 0 -2.1 0 0 9.21 0 0z"/>
  <path class="fil0" d="M138.94 138.67l0 9.21 5.92 0 5.92 0 0 -1.42c0,-0.79 0.08,-1.61 0.16,-1.84 0.13,-0.37 -0.32,-0.42 -3.95,-0.42l-4.13 0 0.08 -1.92 0.08 -1.89 3.24 -0.08 3.21 -0.08 0 -1.68 0 -1.71 -3.29 0 -3.29 0 0 -1.84 0 -1.84 3.55 0c3.21,0 3.55,-0.05 3.55,-0.47 0,-0.24 0.08,-1.08 0.16,-1.84l0.18 -1.37 -5.71 0 -5.68 0 0 9.21 0 0z"/>
  <path class="fil0" d="M347.08 138.67l0 9.21 1.97 0 1.97 0 0 -3.16 0 -3.16 3.29 0 3.29 0 0 -1.84 0 -1.84 -3.29 0 -3.32 0 0.08 -2.45 0.08 -2.42 3.45 -0.08 3.47 -0.08 0.16 -0.82c0.08,-0.45 0.16,-1.21 0.16,-1.68l0 -0.9 -5.66 0 -5.66 0 0 9.21 0 0z"/>
  <polygon class="fil0" points="371.29,138.67 371.29,147.88 373.39,147.88 375.5,147.88 375.5,138.67 375.5,129.46 373.39,129.46 371.29,129.46 "/>
  <polygon class="fil0" points="416.81,138.67 416.81,147.88 418.92,147.88 421.02,147.88 421.02,138.67 421.02,129.46 418.92,129.46 416.81,129.46 "/>
  <path class="fil0" d="M434.44 138.67l0 9.21 1.97 0 1.97 0 0 -6.39 0 -6.37 0.55 0.92c0.55,0.9 8,11.47 8.39,11.92 0.11,0.13 0.92,0.13 1.82,0.03l1.61 -0.18 0 -9.16 0 -9.18 -1.97 0 -2 0 0.08 5.39c0.05,2.97 0,5.39 -0.08,5.39 -0.08,0 -0.26,-0.24 -0.39,-0.5 -0.13,-0.29 -1.84,-2.71 -3.79,-5.39l-3.55 -4.87 -2.29 -0.03 -2.32 0 0 9.21 0 0z"/>
  <path class="fil0" d="M468.81 131.23c-0.37,0.97 -1.92,5.08 -3.45,9.13 -1.53,4.03 -2.76,7.37 -2.76,7.45 0,0.05 0.9,0.08 2,0.03l2.03 -0.08 0.79 -2.18 0.79 -2.16 3.18 0 3.21 0 0.76 2.24 0.79 2.24 1.84 0c1,0 2,-0.11 2.18,-0.24 0.26,-0.16 -0.4,-2.21 -3.05,-9.13l-3.42 -8.92 -2.1 -0.08 -2.1 -0.08 -0.68 1.79zm3.61 6.34c1,2.74 1.03,2.68 -1.13,2.68 -1,0 -1.84,-0.08 -1.84,-0.18 0,-0.08 0.45,-1.47 0.97,-3.05 0.84,-2.47 1.03,-2.76 1.16,-2.13 0.08,0.42 0.47,1.63 0.84,2.68l0 0z"/>
  <path class="fil1" d="M406.47 53.32c0.01,18.59 0.02,37.18 0.03,55.77 9.93,-0 19.86,-0 29.79,-0 0.2,-15.63 0.39,-31.25 0.59,-46.88 13.31,-20.65 26.62,-41.3 39.93,-61.94 -13.29,0 -26.58,0 -39.86,0 -4.58,7.88 -9.17,15.77 -13.75,23.65 -5.57,9.8 -11.15,19.6 -16.72,29.4zm-369.63 -44.19l-35 0 0 99.99 35 0 0 -99.99zm70.78 -8.86l34.59 0 0 108.93 -34.59 0 0 -108.93zm68.42 0.17l35 0 0 71.7 -35 0 0 -71.7zm35 80.6l0 28.16 -35 0 0 -28.16 35 0zm48.38 28.08l32.99 -108.68 34.3 -0.16 -21.62 72.34 -34.6 0 -2.63 8.75 34.64 -0.11 -8.33 27.88 -34.76 -0.02z"/>
  <path class="fil2" d="M417.66 32.67c6.41,9.98 12.81,19.97 19.22,29.95 2.03,-3.17 4.06,-6.35 6.1,-9.52 -6.6,-9.67 -13.2,-19.33 -19.81,-29 -1.84,2.86 -3.67,5.71 -5.51,8.57z"/>
 </g>
</svg>
